<?xml version="1.0" encoding="UTF-8" standalone="no"?>
<!--<svg-->
<!--   xmlns:dc="http://purl.org/dc/elements/1.1/"-->
<!--   xmlns:cc="http://creativecommons.org/ns#"-->
<!--   xmlns:rdf="http://www.w3.org/1999/02/22-rdf-syntax-ns#"-->
<!--   xmlns:svg="http://www.w3.org/2000/svg"-->
<!--   xmlns="http://www.w3.org/2000/svg"-->
<!--   xml:space="preserve"-->
<!--   enable-background="new 0 0 512 512"-->
<!--   viewBox="0 0 512 512"-->
<!--   height="512px"-->
<!--   width="512px"-->
<!--   y="0px"-->
<!--   x="0px"-->
<!--   id="NexT"-->
<!--   version="1.1"><metadata-->
<!--     id="metadata3390"><rdf:RDF><cc:Work-->
<!--         rdf:about=""><dc:format>image/svg+xml</dc:format><dc:type-->
<!--           rdf:resource="http://purl.org/dc/dcmitype/StillImage" /><dc:title></dc:title></cc:Work></rdf:RDF></metadata><defs-->
<!--     id="defs3388" /><path-->
<!--     style="fill:#222222;fill-opacity:1"-->
<!--     id="path3384"-->
<!--     d="M 256.4,25.8 56.4,141.3 56,371.5 255.6,486.2 455.6,370.7 456,140.5 Z m 92.6,328.8 -18.4,10.7 -18.6,-11 0,0 -112,-142.3 0,142.6 -18.4,10.7 -18.6,-11 0,-197 18.5,-10.6 18.5,10.8 0,0 112,144.5 0,-144.6 18.5,-10.6 18.5,10.8 z" /></svg>-->

<svg t="1611199632379" class="icon" viewBox="0 0 1024 1024" version="1.1" xmlns="http://www.w3.org/2000/svg" p-id="4500" width="128" height="128"><path d="M512 373.333333c-76.458667 0-138.666667 62.208-138.666667 138.666667s62.208 138.666667 138.666667 138.666667 138.666667-62.208 138.666667-138.666667-62.208-138.666667-138.666667-138.666667z m0 213.333334c-41.173333 0-74.666667-33.493333-74.666667-74.666667s33.493333-74.666667 74.666667-74.666667 74.666667 33.493333 74.666667 74.666667-33.493333 74.666667-74.666667 74.666667z" p-id="4501" fill="#707070"></path><path d="M949.333333 503.466667c0-2.368-0.298667-4.650667-0.789333-6.869334C940.330667 262.613333 747.946667 74.666667 512 74.666667S83.669333 262.613333 75.456 496.597333a31.68 31.68 0 0 0-0.789333 6.869334c0 0.981333 0.192 1.898667 0.277333 2.858666-0.021333 1.898667-0.277333 3.754667-0.277333 5.674667 0 241.152 196.181333 437.333333 437.333333 437.333333S949.333333 753.152 949.333333 512c0-1.92-0.256-3.776-0.277333-5.674667 0.085333-0.96 0.277333-1.877333 0.277333-2.858666zM512 138.666667c192.149333 0 350.741333 145.941333 371.029333 332.8h-84.8c-16.021333-144.384-139.776-256-286.229333-256s-270.208 111.616-286.229333 256H140.970667C161.258667 284.608 319.850667 138.666667 512 138.666667z m0 746.666666c-197.930667 0-359.936-154.965333-372.138667-349.866666h95.68c27.733333 0 51.050667-21.44 53.098667-48.810667 8.597333-116.202667 106.709333-207.189333 223.36-207.189333s214.762667 91.008 223.381333 207.189333c2.048 27.370667 25.365333 48.810667 53.098667 48.810667h95.68C871.936 730.368 709.930667 885.333333 512 885.333333z" p-id="4502" fill="#707070"></path>
</svg>
